<svg width="356" height="63" viewBox="0 0 356 63" fill="none" xmlns="http://www.w3.org/2000/svg">
<rect x="208.795" y="0.448242" width="61.9044" height="61.6719" transform="rotate(-0.174865 208.795 0.448242)" fill="#A0C4FF"/>
<path d="M270.699 0.259277L340.686 0.0456786C348.97 0.0203953 355.707 6.7156 355.732 14.9998L355.829 46.6716C355.854 54.9559 349.159 61.6921 340.874 61.7173L270.887 61.9309L270.699 0.259277Z" fill="#B2A5FF"/>
<rect x="146.891" y="0.637207" width="61.9044" height="61.6719" transform="rotate(-0.174865 146.891 0.637207)" fill="#CAFFBF"/>
<rect x="84.9871" y="0.826172" width="61.9044" height="61.6719" transform="rotate(-0.174865 84.9871 0.826172)" fill="#FDFFB6"/>
<path d="M0.0457794 16.0856C0.0204961 7.80138 6.7157 1.0652 14.9999 1.03991L84.987 0.826315L85.1752 62.498L15.1882 62.7116C6.90392 62.7369 0.167724 56.0417 0.142441 47.7574L0.0457794 16.0856Z" fill="#FFADAD"/>
</svg>
